# xmcd
#
# Track frame offsets: 
#        150
#        23989
#        40724
#        63105
#        78638
#        99766
#        123303
#        136424
#        161100
#        183633
#        201949
#        223482
#        245308
#        260994
#        279276
#        295929
#        318251
#        336208
#
# Disc length: 4717 seconds
#
# Revision: 1
# Processed by: cddbd v1.5.2PL0 Copyright (c) Steve Scherf et al.
# Submitted via: ExactAudioCopy v1.1
#
DISCID=12126b12
DTITLE=Dionne Warwick - Friends In Love
DYEAR=1982
DGENRE=Soul
TTITLE0=Got A Date
TTITLE1=So Amazing
TTITLE2=I Do It Cause I Like
TTITLE3=Dionne Warwick - Luther Vandross - How Many Times Can We Say Go
TTITLE3=odbye
TTITLE4=What Can A Miracle Do
TTITLE5=Two Ships Are Passing In The Night
TTITLE6=I Can Let Go Now
TTITLE7=Dionne Warwick - Shirelles - Will You Still Love Me Tomorrow
TTITLE8=For You
TTITLE9=Dionne Warwick - Johnny Mathis - Friends In Love
TTITLE10=Never Gonna Let You Go
TTITLE11=Can't Hide Love
TTITLE12=Betcha By Golly Wow
TTITLE13=More Than Fascination
TTITLE14=Dionne Warwick - Johnny Mathis - Got You Where I Want You
TTITLE15=With A Touch
TTITLE16=What Is This
TTITLE17=A Love So Right
EXTD=
EXTT0=
EXTT1=
EXTT2=
EXTT3=
EXTT4=
EXTT5=
EXTT6=
EXTT7=
EXTT8=
EXTT9=
EXTT10=
EXTT11=
EXTT12=
EXTT13=
EXTT14=
EXTT15=
EXTT16=
EXTT17=
PLAYORDER=
